# xmcd
# Copyright (C) 1995-1998 Ti Kan
#
# Track frame offsets:
#       150
#       29246
#       60768
#       93057
#       122049
#       148214
#       178578
#
# Disc length: 3018 seconds
#
# Revision: 0
# Processed by: cddbd v1.5.2PL0 Copyright (c) Steve Scherf et al.
# Submitted via: CD-Import v1.0
#
DISCID=5b0bc807
DTITLE=Lsd-3 - Endless Journey
DYEAR=05
DGENRE=
TTITLE0=Moving Dust
TTITLE1=Niusong
TTITLE2=Endless Journey
TTITLE3=Carots
TTITLE4=Amici
TTITLE5=Mark Legacy
TTITLE6=Dr. Kilgus (And Bonus Live Jam)
EXTD=
EXTT0=
EXTT1=
EXTT2=
EXTT3=
EXTT4=
EXTT5=
EXTT6=
PLAYORDER=
